name C:\Users\u0101727\Documents\MyRepositories\predictivesimulations\OpenSimModel\subject1\EMG\EMG_gait_27.mot
datacolumns 25
datarows 11
range 0.00100000 0.01100000
endheader
time	HamL_r	TA_r	PerL_r	GL_r	HamM_r	Sol_r	VL_r	VM_r	PerB_l	TA_l	PerL_l	GL_l	GM_l	Sol_l	VL_l	VM_l	AddL_l	RF_l	TFL_l	GluMed_l	HamL_l	HamM_l	GluMed_r	RF_r	
          0.00100000	          0.00100000	          0.00158647	          0.01143497	          0.00190885	          0.00100000	          0.00100000	          0.00100000	          0.00100000	          0.00382121	          0.00100000	          0.00191697	          0.00156720	          0.00149528	          0.00144844	          0.00100000	          0.00100000	          0.00100000	          0.00100000	          0.00100000	          0.00100000	          0.00100000	          0.00100000	          0.00604935	          0.00100000	
          0.00200000	          0.00100000	          0.00168553	          0.01254427	          0.00195866	          0.00100000	          0.00100000	          0.00100000	          0.00100000	          0.00409907	          0.00219792	          0.00238144	          0.00181005	          0.00174421	          0.00165406	          0.00100000	          0.00100000	          0.00100000	          0.00100000	          0.00100000	          0.00120430	          0.00100000	          0.00100000	          0.00876398	          0.00100000	
          0.00300000	          0.00100000	          0.00178535	          0.01366420	          0.00201014	          0.00100000	          0.00100000	          0.00100000	          0.00100000	          0.00438051	          0.00396368	          0.00284699	          0.00205410	          0.00199222	          0.00186027	          0.00100000	          0.00100000	          0.00100000	          0.00100000	          0.00100000	          0.00147022	          0.00100000	          0.00100000	          0.01147428	          0.00100000	
          0.00400000	          0.00100000	          0.00188537	          0.01479078	          0.00206306	          0.00100000	          0.00100000	          0.00111383	          0.00100000	          0.00466449	          0.00571661	          0.00331153	          0.00229836	          0.00223820	          0.00206610	          0.00100000	          0.00100000	          0.00100000	          0.00100000	          0.00104847	          0.00173275	          0.00100000	          0.00100000	          0.01417238	          0.00100000	
          0.00500000	          0.00100000	          0.00198505	          0.01592019	          0.00211722	          0.00673057	          0.00100000	          0.00171342	          0.00100000	          0.00495010	          0.00745189	          0.00377331	          0.00254196	          0.00248114	          0.00227074	          0.00100000	          0.00100000	          0.00100000	          0.00100000	          0.00233953	          0.00199093	          0.00100000	          0.00100000	          0.01685048	          0.00100000	
          0.00600000	          0.00100000	          0.00208394	          0.01704890	          0.00217246	          0.01236515	          0.00100000	          0.00230178	          0.00100000	          0.00523658	          0.00916494	          0.00423098	          0.00278415	          0.00272013	          0.00247353	          0.00100000	          0.00116237	          0.00100000	          0.00100000	          0.00359713	          0.00224388	          0.00100000	          0.00100278	          0.01950090	          0.00100000	
          0.00700000	          0.00100000	          0.00218168	          0.01817377	          0.00222863	          0.01786369	          0.00100000	          0.00287729	          0.00100000	          0.00552321	          0.01085146	          0.00468349	          0.00302431	          0.00295444	          0.00267390	          0.00100000	          0.00134669	          0.00100000	          0.00100000	          0.00481722	          0.00249077	          0.00115833	          0.00126551	          0.02211612	          0.00100000	
          0.00800000	          0.00123107	          0.00227794	          0.01929206	          0.00228562	          0.02321501	          0.00100000	          0.00343851	          0.00105545	          0.00580933	          0.01250750	          0.00512999	          0.00326186	          0.00318344	          0.00287135	          0.00100000	          0.00152643	          0.00100000	          0.00100000	          0.00599643	          0.00273082	          0.00139591	          0.00151883	          0.02468898	          0.00100000	
          0.00900000	          0.00149949	          0.00237243	          0.02040129	          0.00234329	          0.02841033	          0.00398465	          0.00398420	          0.00122809	          0.00609425	          0.01412952	          0.00556967	          0.00349621	          0.00340662	          0.00306546	          0.00100000	          0.00170114	          0.00142706	          0.00100000	          0.00713201	          0.00296332	          0.00162495	          0.00176227	          0.02721289	          0.00100000	
          0.01000000	          0.00175609	          0.00246491	          0.02149936	          0.00240150	          0.03344247	          0.00849184	          0.00451334	          0.00139690	          0.00637724	          0.01571434	          0.00600177	          0.00372683	          0.00362345	          0.00325582	          0.00100000	          0.00187043	          0.00194866	          0.00100000	          0.00822186	          0.00318768	          0.00184501	          0.00199543	          0.02968221	          0.00100000	
          0.01100000	          0.00200065	          0.00255519	          0.02258459	          0.00246009	          0.03830523	          0.01279789	          0.00502507	          0.00156162	          0.00665751	          0.01725925	          0.00642562	          0.00395317	          0.00383349	          0.00344213	          0.00138361	          0.00203396	          0.00245228	          0.00100000	          0.00926455	          0.00340360	          0.00205573	          0.00221799	          0.03209252	          0.00100000	
